<?xml version="1.0" encoding="utf-8"?>
<!-- Generator: Adobe Illustrator 22.1.0, SVG Export Plug-In . SVG Version: 6.00 Build 0)  -->
<svg version="1.1" id="Layer_1" xmlns="http://www.w3.org/2000/svg" xmlns:xlink="http://www.w3.org/1999/xlink" x="0px" y="0px"
	 viewBox="0 0 61 48" style="enable-background:new 0 0 61 48;" xml:space="preserve">
<path d="M61,15.4v27c0,3-2.5,5.4-5.4,5.4H5.5c-3,0-5.4-2.5-5.4-5.4v-27c1,1.1,2.2,2.1,3.4,3c5.6,3.8,11.4,7.7,16.9,11.7
	c2.9,2.1,6.4,4.7,10.1,4.7h0.1c3.7,0,7.2-2.6,10.1-4.7c5.5-4,11.3-7.9,16.9-11.7C58.8,17.6,60,16.6,61,15.4z M61,5.4
	c0,3.8-2.8,7.2-5.8,9.3c-5.3,3.7-10.6,7.3-15.9,11.1c-2.2,1.5-6,4.7-8.7,4.7h-0.1c-2.8,0-6.5-3.1-8.7-4.7
	c-5.3-3.7-10.6-7.4-15.9-11.1C3.4,13.1,0,9.3,0,6.2C0,2.9,1.8,0,5.5,0h50.1C58.5,0,61,2.4,61,5.4z"/>
</svg>
