<?xml version="1.0" encoding="utf-8"?>
<!-- Generator: Adobe Illustrator 22.1.0, SVG Export Plug-In . SVG Version: 6.00 Build 0)  -->
<svg version="1.1" id="Layer_1" xmlns="http://www.w3.org/2000/svg" xmlns:xlink="http://www.w3.org/1999/xlink" x="0px" y="0px"
	 viewBox="0 0 48 48" style="enable-background:new 0 0 48 48;" xml:space="preserve">
<path d="M7.4,40.2h7.2V18.5H7.4V40.2z M15.1,11.8c0-2.1-1.6-3.7-4-3.7S7,9.7,7,11.8c0,2.1,1.6,3.7,4,3.7h0
	C13.5,15.6,15.1,13.9,15.1,11.8z M33.4,40.2h7.2V27.7c0-6.7-3.6-9.7-8.3-9.7c-3.9,0-5.6,2.2-6.5,3.7h0.1v-3.2h-7.2c0,0,0.1,2,0,21.7
	l0,0h7.2V28c0-0.6,0-1.3,0.2-1.8c0.5-1.3,1.7-2.6,3.7-2.6c2.6,0,3.6,2,3.6,4.9L33.4,40.2L33.4,40.2z M48,9v30c0,5-4,9-9,9H9
	c-5,0-9-4-9-9V9c0-5,4-9,9-9h30C44,0,48,4,48,9z"/>
</svg>
