<?xml version="1.0" encoding="utf-8"?>
<!-- Generator: Adobe Illustrator 22.1.0, SVG Export Plug-In . SVG Version: 6.00 Build 0)  -->
<svg version="1.1" id="Layer_1" xmlns="http://www.w3.org/2000/svg" xmlns:xlink="http://www.w3.org/1999/xlink" x="0px" y="0px"
	 viewBox="0 0 48 48" style="enable-background:new 0 0 48 48;" xml:space="preserve">
<path d="M42.8,12.7c0.3,0.3,0.5,0.6,0.7,1H30.9V1.1c0.4,0.2,0.7,0.5,1,0.7L42.8,12.7z M30.1,17.1h14.6v28.3c0,1.4-1.2,2.6-2.6,2.6
	h-36c-1.4,0-2.6-1.2-2.6-2.6V2.6C3.5,1.2,4.7,0,6.1,0h21.4v14.6C27.5,16,28.7,17.1,30.1,17.1z M34.4,36.8v-1.7
	c0-0.5-0.4-0.9-0.9-0.9H14.7c-0.5,0-0.9,0.4-0.9,0.9v1.7c0,0.5,0.4,0.9,0.9,0.9h18.8C34,37.7,34.4,37.3,34.4,36.8z M34.4,30v-1.7
	c0-0.5-0.4-0.9-0.9-0.9H14.7c-0.5,0-0.9,0.4-0.9,0.9V30c0,0.5,0.4,0.9,0.9,0.9h18.8C34,30.8,34.4,30.5,34.4,30z M34.4,23.1v-1.7
	c0-0.5-0.4-0.9-0.9-0.9H14.7c-0.5,0-0.9,0.4-0.9,0.9v1.7c0,0.5,0.4,0.9,0.9,0.9h18.8C34,24,34.4,23.6,34.4,23.1z"/>
</svg>
